<svg width="60" height="55" viewBox="0 0 60 55" fill="none" xmlns="http://www.w3.org/2000/svg">
<path d="M37.9631 0.0595701L34.9631 25.0596C34.728 26.1576 33.9631 28.9546 32.3189 31.3578C30.2587 34.369 26.7212 29.8477 24.4631 26.7238C22.5555 24.0848 19.9788 21.6569 19.0806 19.7813C18.1944 18.5481 16.2593 16.606 15.6082 18.7034C14.9572 20.8007 16.2171 22.1925 16.9285 22.6262L12.7146 17.8052C11.8405 17.2145 10.1032 16.6113 10.1466 18.9242C10.19 21.2371 12.5399 23.8189 13.7094 24.8207L8.24764 19.9316C6.93345 19.7366 4.68126 19.9743 6.18596 22.4853C7.69067 24.9963 9.74274 26.3572 10.5807 26.7238L5.82427 23.6505C4.82963 23.4482 3.00309 23.5412 3.65413 25.5318C4.30517 27.5223 7.49417 29.1723 9.00729 29.7484L2.93074 27.8622C1.36941 28.1227 -1.03346 29.1866 1.84567 31.3578C5.44458 34.0717 7.52436 32.4818 8.13926 34.5888C8.75416 36.6959 10.2191 38.1087 15.2467 40.3081C20.2743 42.5075 27.9423 42.3328 32.3189 45.6076C36.6955 48.8823 38.1589 54.1397 42.4631 53.5595C46.7673 52.9794 49.3248 49.5523 48.9631 45.6076C48.6014 41.6629 45.5589 36.4725 46.4631 33.5595C47.1865 31.2292 55.7859 16.4991 59.4631 8.05954" stroke="black"/>
</svg>
