<svg width="53" height="60" viewBox="0 0 53 60" fill="none" xmlns="http://www.w3.org/2000/svg">
<path d="M7.94005 9.56759L24.0607 30.5769C24.697 31.5737 26.2026 34.232 26.811 37.2238C27.5733 40.9725 21.8252 40.0986 17.9829 39.3614C14.737 38.7386 11.1803 38.7549 9.19099 37.9841C7.67785 37.6894 4.92035 37.612 5.99552 39.661C7.07069 41.7099 8.9588 41.8563 9.76846 41.6734L3.33262 41.0583C2.29566 41.2395 0.650307 42.0303 2.36458 43.7439C4.07884 45.4574 7.5901 45.7199 9.13144 45.637L1.77975 45.8654C0.725376 46.6607 -0.665122 48.455 2.20789 49.2701C5.0809 50.0853 7.49645 49.6403 8.3451 49.316L2.80521 50.4084C1.96737 50.969 0.767056 52.349 2.66843 53.3836C4.56981 54.4183 7.98514 53.3762 9.45514 52.7258L3.86307 55.6602C2.96882 56.9763 2.07527 59.5018 5.65502 59.0751C10.1297 58.5416 10.4159 55.8509 12.377 56.9994C14.3381 58.1479 16.3839 58.1632 21.4757 56.2171C26.5676 54.271 31.7639 48.6408 37.1868 47.9727C42.6097 47.3046 47.4537 50.221 50.0195 46.697C52.5853 43.173 51.8653 38.7539 48.7419 36.0378C45.6185 33.3216 39.727 31.5881 38.2337 28.7423C37.0391 26.4658 32.2836 9.18823 28.6914 0.185289" stroke="black"/>
</svg>
